<?xml version="1.0" standalone="no"?>
<!DOCTYPE svg PUBLIC "-//W3C//DTD SVG 20010904//EN"
 "http://www.w3.org/TR/2001/REC-SVG-20010904/DTD/svg10.dtd">
<svg version="1.0" xmlns="http://www.w3.org/2000/svg"
 width="497.000000pt" height="497.000000pt" viewBox="0 0 497.000000 497.000000"
 preserveAspectRatio="xMidYMid meet">
<metadata>
Created by potrace 1.14, written by Peter Selinger 2001-2017
</metadata>
<g transform="translate(0.000000,497.000000) scale(0.100000,-0.100000)"
fill="#000000" stroke="none">
<path d="M1236 4535 c-18 -33 -34 -61 -87 -150 -20 -33 -102 -170 -181 -305
-309 -521 -444 -750 -688 -1160 -139 -234 -253 -432 -252 -440 0 -9 70 -133
155 -275 84 -143 196 -332 248 -420 52 -88 185 -312 294 -498 110 -185 209
-353 220 -371 11 -19 85 -144 165 -279 l144 -244 1237 0 1237 0 14 26 c7 14
66 116 132 226 65 110 126 214 136 230 9 17 77 131 150 255 73 124 141 239
150 255 10 17 131 221 269 454 138 233 251 425 251 426 0 2 29 50 64 107 l64
104 -25 44 c-27 48 -227 387 -301 510 -25 41 -53 89 -62 105 -10 17 -82 138
-160 270 -79 132 -151 254 -160 270 -9 17 -45 77 -79 133 -33 57 -61 108 -61
113 0 5 -3 9 -7 9 -5 0 -13 10 -19 23 -9 18 -115 199 -195 332 -10 17 -24 41
-32 55 -8 14 -41 70 -73 125 l-59 100 -1237 0 -1237 0 -15 -30z"/>
</g>
</svg>
